<?xml version="1.0" encoding="UTF-8" standalone="no"?>
<!DOCTYPE svg PUBLIC "-//W3C//DTD SVG 1.1//EN"
 "http://www.w3.org/Graphics/SVG/1.1/DTD/svg11.dtd">
<!-- Generated by graphviz version 2.40.1 (20161225.0304)
 -->
<!-- Title: %3 Pages: 1 -->
<svg width="622pt" height="404pt"
 viewBox="0.00 0.00 622.32 404.00" xmlns="http://www.w3.org/2000/svg" xmlns:xlink="http://www.w3.org/1999/xlink">
<g id="graph0" class="graph" transform="scale(1 1) rotate(0) translate(4 400)">
<title>%3</title>
<polygon fill="#ffffff" stroke="transparent" points="-4,4 -4,-400 618.3235,-400 618.3235,4 -4,4"/>
<!-- [root] aws_instance.firstserver -->
<g id="node1" class="node">
<title>[root] aws_instance.firstserver</title>
<polygon fill="none" stroke="#000000" points="526.7907,-252 379.7907,-252 379.7907,-216 526.7907,-216 526.7907,-252"/>
<text text-anchor="middle" x="453.2907" y="-230.3" font-family="Times,serif" font-size="14.00" fill="#000000">aws_instance.firstserver</text>
</g>
<!-- [root] aws_subnet.subnet2 -->
<g id="node4" class="node">
<title>[root] aws_subnet.subnet2</title>
<polygon fill="none" stroke="#000000" points="419.7907,-180 294.7907,-180 294.7907,-144 419.7907,-144 419.7907,-180"/>
<text text-anchor="middle" x="357.2907" y="-158.3" font-family="Times,serif" font-size="14.00" fill="#000000">aws_subnet.subnet2</text>
</g>
<!-- [root] aws_instance.firstserver&#45;&gt;[root] aws_subnet.subnet2 -->
<g id="edge1" class="edge">
<title>[root] aws_instance.firstserver&#45;&gt;[root] aws_subnet.subnet2</title>
<path fill="none" stroke="#000000" d="M429.0658,-215.8314C417.1279,-206.8779 402.5651,-195.9558 389.6846,-186.2955"/>
<polygon fill="#000000" stroke="#000000" points="391.6078,-183.3629 381.5078,-180.1628 387.4078,-188.9629 391.6078,-183.3629"/>
</g>
<!-- [root] data.aws_ami.ubuntu -->
<g id="node6" class="node">
<title>[root] data.aws_ami.ubuntu</title>
<polygon fill="none" stroke="#000000" points="506.7907,-108 373.7907,-108 373.7907,-72 506.7907,-72 506.7907,-108"/>
<text text-anchor="middle" x="440.2907" y="-86.3" font-family="Times,serif" font-size="14.00" fill="#000000">data.aws_ami.ubuntu</text>
</g>
<!-- [root] aws_instance.firstserver&#45;&gt;[root] data.aws_ami.ubuntu -->
<g id="edge2" class="edge">
<title>[root] aws_instance.firstserver&#45;&gt;[root] data.aws_ami.ubuntu</title>
<path fill="none" stroke="#000000" d="M451.6442,-215.7623C449.4269,-191.201 445.4588,-147.2474 442.8504,-118.3541"/>
<polygon fill="#000000" stroke="#000000" points="446.3088,-117.7344 441.9237,-108.0896 439.3371,-118.3638 446.3088,-117.7344"/>
</g>
<!-- [root] aws_security_group.subnetsecurity -->
<g id="node2" class="node">
<title>[root] aws_security_group.subnetsecurity</title>
<polygon fill="none" stroke="#000000" points="361.7907,-252 154.7907,-252 154.7907,-216 361.7907,-216 361.7907,-252"/>
<text text-anchor="middle" x="258.2907" y="-230.3" font-family="Times,serif" font-size="14.00" fill="#000000">aws_security_group.subnetsecurity</text>
</g>
<!-- [root] aws_vpc.environment&#45;learning -->
<g id="node5" class="node">
<title>[root] aws_vpc.environment&#45;learning</title>
<polygon fill="none" stroke="#000000" points="354.7907,-108 169.7907,-108 169.7907,-72 354.7907,-72 354.7907,-108"/>
<text text-anchor="middle" x="262.2907" y="-86.3" font-family="Times,serif" font-size="14.00" fill="#000000">aws_vpc.environment&#45;learning</text>
</g>
<!-- [root] aws_security_group.subnetsecurity&#45;&gt;[root] aws_vpc.environment&#45;learning -->
<g id="edge3" class="edge">
<title>[root] aws_security_group.subnetsecurity&#45;&gt;[root] aws_vpc.environment&#45;learning</title>
<path fill="none" stroke="#000000" d="M258.7973,-215.7623C259.4795,-191.201 260.7005,-147.2474 261.503,-118.3541"/>
<polygon fill="#000000" stroke="#000000" points="265.0091,-118.183 261.7882,-108.0896 258.0118,-117.9885 265.0091,-118.183"/>
</g>
<!-- [root] aws_subnet.subnet1 -->
<g id="node3" class="node">
<title>[root] aws_subnet.subnet1</title>
<polygon fill="none" stroke="#000000" points="136.7907,-252 11.7907,-252 11.7907,-216 136.7907,-216 136.7907,-252"/>
<text text-anchor="middle" x="74.2907" y="-230.3" font-family="Times,serif" font-size="14.00" fill="#000000">aws_subnet.subnet1</text>
</g>
<!-- [root] aws_subnet.subnet1&#45;&gt;[root] aws_vpc.environment&#45;learning -->
<g id="edge4" class="edge">
<title>[root] aws_subnet.subnet1&#45;&gt;[root] aws_vpc.environment&#45;learning</title>
<path fill="none" stroke="#000000" d="M98.101,-215.7623C131.7209,-190.0108 193.1719,-142.942 230.613,-114.2637"/>
<polygon fill="#000000" stroke="#000000" points="232.8631,-116.949 238.6737,-108.0896 228.6066,-111.3918 232.8631,-116.949"/>
</g>
<!-- [root] aws_subnet.subnet2&#45;&gt;[root] aws_vpc.environment&#45;learning -->
<g id="edge5" class="edge">
<title>[root] aws_subnet.subnet2&#45;&gt;[root] aws_vpc.environment&#45;learning</title>
<path fill="none" stroke="#000000" d="M333.3181,-143.8314C321.5046,-134.8779 307.0935,-123.9558 294.3472,-114.2955"/>
<polygon fill="#000000" stroke="#000000" points="296.3393,-111.4137 286.2555,-108.1628 292.1111,-116.9925 296.3393,-111.4137"/>
</g>
<!-- [root] provider.aws -->
<g id="node7" class="node">
<title>[root] provider.aws</title>
<polygon fill="none" stroke="#000000" points="350.2907,-36 270.3573,-18 350.2907,0 430.224,-18 350.2907,-36"/>
<text text-anchor="middle" x="350.2907" y="-14.3" font-family="Times,serif" font-size="14.00" fill="#000000">provider.aws</text>
</g>
<!-- [root] aws_vpc.environment&#45;learning&#45;&gt;[root] provider.aws -->
<g id="edge6" class="edge">
<title>[root] aws_vpc.environment&#45;learning&#45;&gt;[root] provider.aws</title>
<path fill="none" stroke="#000000" d="M284.4968,-71.8314C296.7764,-61.7844 312.0859,-49.2585 324.8462,-38.8182"/>
<polygon fill="#000000" stroke="#000000" points="327.2828,-41.3469 332.8061,-32.3056 322.8501,-35.9291 327.2828,-41.3469"/>
</g>
<!-- [root] data.aws_ami.ubuntu&#45;&gt;[root] provider.aws -->
<g id="edge7" class="edge">
<title>[root] data.aws_ami.ubuntu&#45;&gt;[root] provider.aws</title>
<path fill="none" stroke="#000000" d="M417.5799,-71.8314C404.9357,-61.716 389.1506,-49.0879 376.0474,-38.6054"/>
<polygon fill="#000000" stroke="#000000" points="377.8791,-35.5886 367.884,-32.0747 373.5062,-41.0547 377.8791,-35.5886"/>
</g>
<!-- [root] meta.count&#45;boundary (count boundary fixup) -->
<g id="node8" class="node">
<title>[root] meta.count&#45;boundary (count boundary fixup)</title>
<ellipse fill="none" stroke="#000000" cx="421.2907" cy="-306" rx="193.0657" ry="18"/>
<text text-anchor="middle" x="421.2907" y="-302.3" font-family="Times,serif" font-size="14.00" fill="#000000">[root] meta.count&#45;boundary (count boundary fixup)</text>
</g>
<!-- [root] meta.count&#45;boundary (count boundary fixup)&#45;&gt;[root] aws_instance.firstserver -->
<g id="edge8" class="edge">
<title>[root] meta.count&#45;boundary (count boundary fixup)&#45;&gt;[root] aws_instance.firstserver</title>
<path fill="none" stroke="#000000" d="M429.3656,-287.8314C432.9008,-279.8771 437.1266,-270.369 441.0363,-261.5723"/>
<polygon fill="#000000" stroke="#000000" points="444.2439,-262.9729 445.107,-252.4133 437.8472,-260.1299 444.2439,-262.9729"/>
</g>
<!-- [root] meta.count&#45;boundary (count boundary fixup)&#45;&gt;[root] aws_security_group.subnetsecurity -->
<g id="edge9" class="edge">
<title>[root] meta.count&#45;boundary (count boundary fixup)&#45;&gt;[root] aws_security_group.subnetsecurity</title>
<path fill="none" stroke="#000000" d="M381.4164,-288.3868C359.4646,-278.6903 332.0055,-266.5612 308.5923,-256.2191"/>
<polygon fill="#000000" stroke="#000000" points="309.7317,-252.8962 299.1702,-252.0572 306.9033,-259.2994 309.7317,-252.8962"/>
</g>
<!-- [root] meta.count&#45;boundary (count boundary fixup)&#45;&gt;[root] aws_subnet.subnet1 -->
<g id="edge10" class="edge">
<title>[root] meta.count&#45;boundary (count boundary fixup)&#45;&gt;[root] aws_subnet.subnet1</title>
<path fill="none" stroke="#000000" d="M332.7796,-289.9662C281.053,-280.2928 214.3016,-267.2919 146.9114,-252.3128"/>
<polygon fill="#000000" stroke="#000000" points="147.4884,-248.8555 136.9656,-250.0886 145.9607,-255.6868 147.4884,-248.8555"/>
</g>
<!-- [root] provider.aws (close) -->
<g id="node9" class="node">
<title>[root] provider.aws (close)</title>
<ellipse fill="none" stroke="#000000" cx="105.2907" cy="-306" rx="105.0817" ry="18"/>
<text text-anchor="middle" x="105.2907" y="-302.3" font-family="Times,serif" font-size="14.00" fill="#000000">[root] provider.aws (close)</text>
</g>
<!-- [root] provider.aws (close)&#45;&gt;[root] aws_instance.firstserver -->
<g id="edge11" class="edge">
<title>[root] provider.aws (close)&#45;&gt;[root] aws_instance.firstserver</title>
<path fill="none" stroke="#000000" d="M174.2449,-292.3124C225.5662,-282.0533 297.6149,-267.5007 369.4175,-252.3822"/>
<polygon fill="#000000" stroke="#000000" points="370.4832,-255.7345 379.5453,-250.2456 369.0382,-248.8853 370.4832,-255.7345"/>
</g>
<!-- [root] provider.aws (close)&#45;&gt;[root] aws_security_group.subnetsecurity -->
<g id="edge12" class="edge">
<title>[root] provider.aws (close)&#45;&gt;[root] aws_security_group.subnetsecurity</title>
<path fill="none" stroke="#000000" d="M141.5495,-288.937C162.1944,-279.2218 188.3053,-266.9343 210.5955,-256.4448"/>
<polygon fill="#000000" stroke="#000000" points="212.3296,-259.497 219.8875,-252.0721 209.349,-253.1632 212.3296,-259.497"/>
</g>
<!-- [root] provider.aws (close)&#45;&gt;[root] aws_subnet.subnet1 -->
<g id="edge13" class="edge">
<title>[root] provider.aws (close)&#45;&gt;[root] aws_subnet.subnet1</title>
<path fill="none" stroke="#000000" d="M97.468,-287.8314C94.0797,-279.9617 90.0366,-270.5712 86.283,-261.8533"/>
<polygon fill="#000000" stroke="#000000" points="89.3879,-260.214 82.2186,-252.4133 82.9585,-262.9822 89.3879,-260.214"/>
</g>
<!-- [root] root -->
<g id="node10" class="node">
<title>[root] root</title>
<ellipse fill="none" stroke="#000000" cx="263.2907" cy="-378" rx="47.3916" ry="18"/>
<text text-anchor="middle" x="263.2907" y="-374.3" font-family="Times,serif" font-size="14.00" fill="#000000">[root] root</text>
</g>
<!-- [root] root&#45;&gt;[root] meta.count&#45;boundary (count boundary fixup) -->
<g id="edge14" class="edge">
<title>[root] root&#45;&gt;[root] meta.count&#45;boundary (count boundary fixup)</title>
<path fill="none" stroke="#000000" d="M293.7546,-364.1177C316.2768,-353.8544 347.3918,-339.6754 373.2499,-327.892"/>
<polygon fill="#000000" stroke="#000000" points="374.8647,-331.0025 382.5131,-323.6708 371.962,-324.6327 374.8647,-331.0025"/>
</g>
<!-- [root] root&#45;&gt;[root] provider.aws (close) -->
<g id="edge15" class="edge">
<title>[root] root&#45;&gt;[root] provider.aws (close)</title>
<path fill="none" stroke="#000000" d="M232.8267,-364.1177C209.8253,-353.6361 177.8616,-339.0703 151.6882,-327.1432"/>
<polygon fill="#000000" stroke="#000000" points="152.8857,-323.8427 142.3346,-322.8808 149.983,-330.2125 152.8857,-323.8427"/>
</g>
</g>
</svg>
